<svg width="30" height="30" viewBox="0 0 30 30" fill="none" xmlns="http://www.w3.org/2000/svg">
<path d="M16.6064 24.2059L7.27804 25.9382C5.48879 26.2705 4.59417 26.4366 4.07878 25.9212C3.5634 25.4058 3.72953 24.5111 4.06178 22.7218L5.79403 13.3929C6.07181 11.897 6.21069 11.1491 6.70378 10.6971C7.19686 10.2452 8.09862 10.157 9.90212 9.9806C11.6403 9.81059 13.2854 9.21471 15 7.5L22.5 15.0007C20.7854 16.7154 20.1892 18.3593 20.0189 20.0976C19.8422 21.9013 19.7539 22.8032 19.302 23.2962C18.8501 23.7892 18.1022 23.9281 16.6064 24.2059Z" stroke="#0F121C" stroke-width="1.5" stroke-linejoin="round"/>
<path d="M13.75 19.0132C13.0507 18.8996 12.4112 18.5954 11.9079 18.0921M11.9079 18.0921C11.4046 17.5888 11.1004 16.9493 10.9868 16.25M11.9079 18.0921L5 25" stroke="#0F121C" stroke-width="1.5" stroke-linecap="round"/>
<path d="M15 7.5C15.8904 6.18637 17.0964 3.9765 18.8831 3.76373C20.1028 3.61848 21.1132 4.6289 23.134 6.64972L23.3503 6.86597C25.3711 8.88679 26.3815 9.89721 26.2363 11.1169C26.0235 12.9036 23.8136 14.1096 22.5 15" stroke="#0F121C" stroke-width="1.5" stroke-linejoin="round"/>
</svg>
