<svg width="32" height="32" viewBox="0 0 32 32" fill="none" xmlns="http://www.w3.org/2000/svg">
<path d="M11.334 8.66667C11.334 6.79405 11.334 5.85775 11.7834 5.18515C11.978 4.89397 12.228 4.64397 12.5191 4.44941C13.1917 4 14.128 4 16.0007 4C17.8733 4 18.8096 4 19.4821 4.44941C19.7733 4.64397 20.0233 4.89397 20.2179 5.18515C20.6673 5.85775 20.6673 6.79405 20.6673 8.66667" stroke="#06A0ED" stroke-width="2" stroke-linecap="round" stroke-linejoin="round"/>
<path d="M29.3327 18.6666V18C29.3327 13.6002 29.3327 11.4003 27.9659 10.0335C26.5989 8.66663 24.3991 8.66663 19.9993 8.66663H11.9993C7.59958 8.66663 5.39968 8.66663 4.03286 10.0335C2.66602 11.4003 2.66602 13.6002 2.66602 18V18.6666C2.66602 23.0664 2.66602 25.2662 4.03286 26.6332C5.39968 28 7.59958 28 11.9993 28H19.9993C24.3991 28 26.5989 28 27.9659 26.6332C29.3327 25.2662 29.3327 23.0664 29.3327 18.6666Z" stroke="#06A0ED" stroke-width="2" stroke-linecap="round" stroke-linejoin="round"/>
<path d="M2.66602 14.6666C2.66602 14.6666 6.17479 20 15.9993 20C25.8239 20 29.3327 14.6666 29.3327 14.6666" stroke="#06A0ED" stroke-width="2" stroke-linecap="round" stroke-linejoin="round"/>
<path d="M16.166 15.6667H15.9993M16.3327 15.6667C16.3327 15.8508 16.1835 16 15.9993 16C15.8152 16 15.666 15.8508 15.666 15.6667C15.666 15.4826 15.8152 15.3334 15.9993 15.3334C16.1835 15.3334 16.3327 15.4826 16.3327 15.6667Z" stroke="#06A0ED" stroke-width="2" stroke-linecap="round" stroke-linejoin="round"/>
</svg>
